<svg width="629" height="100" viewBox="0 0 629 100" fill="none" xmlns="http://www.w3.org/2000/svg">
<path fill-rule="evenodd" clip-rule="evenodd" d="M230.993 84.5643V84.5501C230.993 66.6231 230.993 39.7325 230.993 3.87841C230.993 3.87841 246.586 1.87207 263.632 1.87207C298.121 1.87207 304.992 26.2156 304.992 47.8841C304.992 61.007 301.121 75.0106 292.255 84.5643H230.993Z" fill="#FF206E"/>
<path fill-rule="evenodd" clip-rule="evenodd" d="M225.919 84.5645H163.145C159.368 79.2891 157.387 71.9363 157.387 61.9286V2.6748H209.583V58.5848L225.308 57.6485L225.919 84.5645Z" fill="#FF206E"/>
<path fill-rule="evenodd" clip-rule="evenodd" d="M142.063 84.5648H84.6712C76.6599 76.0506 72.0204 63.0879 72.0204 46.2795C72.0204 18.057 89.7273 0 113.645 0C137.959 0 154.741 18.057 154.741 46.2795C154.741 63.0879 150.028 76.0506 142.063 84.5648Z" fill="#FF206E"/>
<path fill-rule="evenodd" clip-rule="evenodd" d="M0 84.5645V2.6748H40.6994C58.2741 2.6748 65.8062 12.0377 65.8062 23.407C65.8062 32.3686 63.0312 39.1902 57.217 43.6041C66.9954 46.2792 71.7525 55.6421 71.7525 66.6101C71.7525 73.0081 70.426 79.531 66.0739 84.5645H0Z" fill="#FF206E"/>
<path d="M342.227 50.0909V58.2727H320.205V50.0909H342.227ZM324.818 41.7273H335.932V74.0227C335.932 74.7045 336.038 75.2576 336.25 75.6818C336.477 76.0909 336.803 76.3864 337.227 76.5682C337.652 76.7348 338.159 76.8182 338.75 76.8182C339.174 76.8182 339.621 76.7803 340.091 76.7045C340.576 76.6136 340.939 76.5379 341.182 76.4773L342.864 84.5C342.333 84.6515 341.583 84.8409 340.614 85.0682C339.659 85.2955 338.515 85.4394 337.182 85.5C334.576 85.6212 332.341 85.3182 330.477 84.5909C328.629 83.8485 327.212 82.697 326.227 81.1364C325.258 79.5758 324.788 77.6136 324.818 75.25V41.7273ZM344.058 85V50.0909H354.853V56.4545H355.217C355.853 54.1515 356.891 52.4394 358.33 51.3182C359.77 50.1818 361.444 49.6136 363.353 49.6136C363.868 49.6136 364.399 49.6515 364.944 49.7273C365.49 49.7879 365.997 49.8864 366.467 50.0227V59.6818C365.937 59.5 365.24 59.3561 364.376 59.25C363.527 59.1439 362.77 59.0909 362.103 59.0909C360.785 59.0909 359.596 59.3864 358.535 59.9773C357.49 60.553 356.664 61.3636 356.058 62.4091C355.467 63.4394 355.171 64.6515 355.171 66.0455V85H344.058ZM375.684 85.5909C373.456 85.5909 371.479 85.2197 369.752 84.4773C368.04 83.7197 366.684 82.5833 365.684 81.0682C364.699 79.5379 364.206 77.6212 364.206 75.3182C364.206 73.3788 364.547 71.7424 365.229 70.4091C365.911 69.0758 366.85 67.9924 368.047 67.1591C369.244 66.3258 370.623 65.697 372.184 65.2727C373.744 64.8333 375.411 64.5379 377.184 64.3864C379.168 64.2045 380.767 64.0152 381.979 63.8182C383.191 63.6061 384.07 63.3106 384.615 62.9318C385.176 62.5379 385.456 61.9848 385.456 61.2727V61.1591C385.456 59.9924 385.055 59.0909 384.252 58.4545C383.449 57.8182 382.365 57.5 381.002 57.5C379.532 57.5 378.35 57.8182 377.456 58.4545C376.562 59.0909 375.994 59.9697 375.752 61.0909L365.502 60.7273C365.805 58.6061 366.585 56.7121 367.843 55.0455C369.115 53.3636 370.858 52.0455 373.07 51.0909C375.297 50.1212 377.972 49.6364 381.093 49.6364C383.32 49.6364 385.373 49.9015 387.252 50.4318C389.131 50.947 390.767 51.7045 392.161 52.7045C393.555 53.6894 394.631 54.9015 395.388 56.3409C396.161 57.7803 396.547 59.4242 396.547 61.2727V85H386.093V80.1364H385.82C385.199 81.3182 384.403 82.3182 383.434 83.1364C382.479 83.9545 381.35 84.5682 380.047 84.9773C378.759 85.3864 377.305 85.5909 375.684 85.5909ZM379.115 78.3182C380.312 78.3182 381.388 78.0758 382.343 77.5909C383.312 77.1061 384.085 76.4394 384.661 75.5909C385.237 74.7273 385.525 73.7273 385.525 72.5909V69.2727C385.206 69.4394 384.82 69.5909 384.365 69.7273C383.926 69.8636 383.441 69.9924 382.911 70.1136C382.381 70.2348 381.835 70.3409 381.275 70.4318C380.714 70.5227 380.176 70.6061 379.661 70.6818C378.615 70.8485 377.722 71.1061 376.979 71.4545C376.252 71.803 375.691 72.2576 375.297 72.8182C374.918 73.3636 374.729 74.0152 374.729 74.7727C374.729 75.9242 375.138 76.803 375.956 77.4091C376.79 78.0152 377.843 78.3182 379.115 78.3182ZM410.616 65.0909V85H399.503V50.0909H410.071V56.5H410.457C411.23 54.3636 412.548 52.6894 414.412 51.4773C416.275 50.25 418.495 49.6364 421.071 49.6364C423.525 49.6364 425.654 50.1894 427.457 51.2955C429.275 52.3864 430.685 53.9167 431.685 55.8864C432.7 57.8409 433.2 60.1288 433.185 62.75V85H422.071V64.9318C422.086 62.9924 421.594 61.4773 420.594 60.3864C419.609 59.2955 418.238 58.75 416.48 58.75C415.313 58.75 414.283 59.0076 413.389 59.5227C412.51 60.0227 411.828 60.7424 411.344 61.6818C410.874 62.6212 410.632 63.7576 410.616 65.0909ZM466.702 60.75L456.498 61.0227C456.392 60.2955 456.104 59.6515 455.634 59.0909C455.165 58.5152 454.551 58.0682 453.793 57.75C453.051 57.4167 452.187 57.25 451.202 57.25C449.915 57.25 448.816 57.5076 447.907 58.0227C447.013 58.5379 446.574 59.2348 446.589 60.1136C446.574 60.7955 446.846 61.3864 447.407 61.8864C447.983 62.3864 449.006 62.7879 450.475 63.0909L457.202 64.3636C460.687 65.0303 463.278 66.1364 464.975 67.6818C466.687 69.2273 467.551 71.2727 467.566 73.8182C467.551 76.2121 466.839 78.2955 465.43 80.0682C464.036 81.8409 462.127 83.2197 459.702 84.2045C457.278 85.1742 454.506 85.6591 451.384 85.6591C446.399 85.6591 442.468 84.6364 439.589 82.5909C436.725 80.5303 435.089 77.7727 434.68 74.3182L445.657 74.0455C445.899 75.3182 446.528 76.2879 447.543 76.9545C448.559 77.6212 449.854 77.9545 451.43 77.9545C452.854 77.9545 454.013 77.6894 454.907 77.1591C455.801 76.6288 456.256 75.9242 456.271 75.0455C456.256 74.2576 455.907 73.6288 455.225 73.1591C454.543 72.6742 453.475 72.2955 452.021 72.0227L445.93 70.8636C442.43 70.2273 439.824 69.053 438.112 67.3409C436.399 65.6136 435.551 63.4167 435.566 60.75C435.551 58.4167 436.172 56.4242 437.43 54.7727C438.687 53.1061 440.475 51.8333 442.793 50.9545C445.112 50.0758 447.846 49.6364 450.998 49.6364C455.725 49.6364 459.453 50.6288 462.18 52.6136C464.907 54.5833 466.415 57.2955 466.702 60.75ZM485.493 85.6591C481.811 85.6591 478.652 84.9015 476.016 83.3864C473.395 81.8712 471.38 79.7652 469.97 77.0682C468.561 74.3561 467.857 71.2197 467.857 67.6591C467.857 64.0833 468.561 60.947 469.97 58.25C471.395 55.5379 473.417 53.4242 476.039 51.9091C478.675 50.3939 481.819 49.6364 485.47 49.6364C488.698 49.6364 491.508 50.2197 493.902 51.3864C496.311 52.553 498.19 54.2045 499.539 56.3409C500.902 58.4621 501.622 60.9545 501.698 63.8182H491.311C491.099 62.0303 490.493 60.6288 489.493 59.6136C488.508 58.5985 487.22 58.0909 485.63 58.0909C484.342 58.0909 483.213 58.4545 482.243 59.1818C481.273 59.8939 480.516 60.9545 479.97 62.3636C479.44 63.7576 479.175 65.4848 479.175 67.5455C479.175 69.6061 479.44 71.3485 479.97 72.7727C480.516 74.1818 481.273 75.25 482.243 75.9773C483.213 76.6894 484.342 77.0455 485.63 77.0455C486.66 77.0455 487.569 76.8258 488.357 76.3864C489.16 75.947 489.819 75.303 490.334 74.4545C490.849 73.5909 491.175 72.5455 491.311 71.3182H501.698C501.592 74.197 500.872 76.7121 499.539 78.8636C498.22 81.0152 496.364 82.6894 493.97 83.8864C491.592 85.0682 488.766 85.6591 485.493 85.6591ZM503.545 85V50.0909H514.341V56.4545H514.704C515.341 54.1515 516.379 52.4394 517.818 51.3182C519.257 50.1818 520.932 49.6136 522.841 49.6136C523.356 49.6136 523.886 49.6515 524.432 49.7273C524.977 49.7879 525.485 49.8864 525.954 50.0227V59.6818C525.424 59.5 524.727 59.3561 523.863 59.25C523.015 59.1439 522.257 59.0909 521.591 59.0909C520.273 59.0909 519.083 59.3864 518.023 59.9773C516.977 60.553 516.151 61.3636 515.545 62.4091C514.954 63.4394 514.659 64.6515 514.659 66.0455V85H503.545ZM526.643 85V50.0909H537.756V85H526.643ZM532.211 46.0227C530.65 46.0227 529.309 45.5076 528.188 44.4773C527.067 43.4318 526.506 42.1742 526.506 40.7045C526.506 39.25 527.067 38.0076 528.188 36.9773C529.309 35.9318 530.65 35.4091 532.211 35.4091C533.787 35.4091 535.128 35.9318 536.234 36.9773C537.355 38.0076 537.915 39.25 537.915 40.7045C537.915 42.1742 537.355 43.4318 536.234 44.4773C535.128 45.5076 533.787 46.0227 532.211 46.0227ZM540.99 85V38.4545H552.104V56.0682H552.331C552.786 55.0076 553.43 53.9848 554.263 53C555.111 52.0152 556.187 51.2121 557.49 50.5909C558.808 49.9545 560.384 49.6364 562.217 49.6364C564.642 49.6364 566.907 50.2727 569.013 51.5455C571.134 52.8182 572.846 54.7803 574.149 57.4318C575.452 60.0833 576.104 63.4621 576.104 67.5682C576.104 71.5227 575.475 74.8333 574.217 77.5C572.975 80.1667 571.293 82.1667 569.172 83.5C567.066 84.8333 564.725 85.5 562.149 85.5C560.392 85.5 558.869 85.2121 557.581 84.6364C556.293 84.0606 555.21 83.303 554.331 82.3636C553.467 81.4242 552.801 80.4167 552.331 79.3409H551.99V85H540.99ZM551.877 67.5455C551.877 69.4242 552.127 71.0606 552.627 72.4545C553.142 73.8485 553.877 74.9318 554.831 75.7045C555.801 76.4621 556.96 76.8409 558.308 76.8409C559.672 76.8409 560.831 76.4621 561.786 75.7045C562.74 74.9318 563.46 73.8485 563.945 72.4545C564.445 71.0606 564.695 69.4242 564.695 67.5455C564.695 65.6667 564.445 64.0379 563.945 62.6591C563.46 61.2803 562.74 60.2121 561.786 59.4545C560.846 58.697 559.687 58.3182 558.308 58.3182C556.945 58.3182 555.786 58.6894 554.831 59.4318C553.877 60.1742 553.142 61.2348 552.627 62.6136C552.127 63.9924 551.877 65.6364 551.877 67.5455ZM594.406 85.6591C590.754 85.6591 587.603 84.9394 584.951 83.5C582.315 82.0455 580.285 79.9773 578.86 77.2955C577.451 74.5985 576.747 71.3939 576.747 67.6818C576.747 64.0758 577.459 60.9242 578.883 58.2273C580.307 55.5152 582.315 53.4091 584.906 51.9091C587.497 50.3939 590.55 49.6364 594.065 49.6364C596.55 49.6364 598.823 50.0227 600.883 50.7955C602.944 51.5682 604.724 52.7121 606.224 54.2273C607.724 55.7424 608.891 57.6136 609.724 59.8409C610.557 62.053 610.974 64.5909 610.974 67.4545V70.2273H580.633V63.7727H600.633C600.618 62.5909 600.338 61.5379 599.792 60.6136C599.247 59.6894 598.497 58.9697 597.542 58.4545C596.603 57.9242 595.52 57.6591 594.292 57.6591C593.05 57.6591 591.936 57.9394 590.951 58.5C589.967 59.0455 589.186 59.7955 588.61 60.75C588.035 61.6894 587.732 62.7576 587.701 63.9545V70.5227C587.701 71.947 587.982 73.197 588.542 74.2727C589.103 75.3333 589.898 76.1591 590.929 76.75C591.959 77.3409 593.186 77.6364 594.61 77.6364C595.595 77.6364 596.489 77.5 597.292 77.2273C598.095 76.9545 598.785 76.553 599.36 76.0227C599.936 75.4924 600.368 74.8409 600.656 74.0682L610.86 74.3636C610.436 76.6515 609.504 78.6439 608.065 80.3409C606.641 82.0227 604.77 83.3333 602.451 84.2727C600.133 85.197 597.451 85.6591 594.406 85.6591ZM619.06 85.6591C617.424 85.6591 616.022 85.0833 614.856 83.9318C613.704 82.7803 613.136 81.3864 613.151 79.75C613.136 78.1439 613.704 76.7727 614.856 75.6364C616.022 74.4848 617.424 73.9091 619.06 73.9091C620.606 73.9091 621.969 74.4848 623.151 75.6364C624.348 76.7727 624.954 78.1439 624.969 79.75C624.954 80.8409 624.666 81.8333 624.106 82.7273C623.56 83.6212 622.841 84.3333 621.947 84.8636C621.068 85.3939 620.106 85.6591 619.06 85.6591Z" fill="black"/>
</svg>
